# xmcd
#
# Track frame offsets:
#	150
#	12385
#	40380
#	51437
#	78332
#	91942
#	106092
#	128560
#	153195
#	174655
#	187985
#	211317
#	236477
#	254235
#	266370
#	278520
#	293687
#	306597
#	317477
#	322040
# Disc length: 4413 seconds
# Revision: 3
# Processed by: cddbd v1.5.1PL2 Copyright (c) Steve Scherf et al.
#
# Submitted via: libkcddb 0.21
#
DISCID=14113b14
DTITLE=Best Of Jazz - CD 1
DYEAR=1900
DGENRE=Jazz
TTITLE0=Bud Powell - Iniana
TTITLE1=Freddie Hubard - Karioka
TTITLE2=Duke Elington - Star Dust
TTITLE3=Lee Morgan - Trapped
TTITLE4=Art Pepper - Over The Rainbow
TTITLE5=Mose Allison - Putting Up with Me
TTITLE6=Gerry Mulligan - Revelation
TTITLE7=Art Blakey - Down Under
TTITLE8=Horace Silver - Finger Poppin'
TTITLE9=Chet Baker - I Get Along You Very Well
TTITLE10=Cannonball Adderley - Mercy, Mercy, Mercy
TTITLE11=Herbie Hancock - The Sorcerer
TTITLE12=Jimmy Smith - Cherry
TTITLE13=Duke Ellington - Chile Bowl
TTITLE14=Benny Carter - Hollyridge drive
TTITLE15=Wayne Shorter - Calm
TTITLE16=Bud Powell - I Want To Be happy
TTITLE17=Dianah Washington - To Forget About You
TTITLE18=Count Basie - One O'Clock Jump
TTITLE19=Stan Kenton - Just in Time
EXTD=
EXTT0=
EXTT1=
EXTT2=
EXTT3=
EXTT4=
EXTT5=
EXTT6=
EXTT7=
EXTT8=
EXTT9=
EXTT10=
EXTT11=
EXTT12=
EXTT13=
EXTT14=
EXTT15=
EXTT16=
EXTT17=
EXTT18=
EXTT19=
PLAYORDER=
